/* XPM */
static const char * angle_transform_xpm[] = {
"32 32 254 2",
"  	c None",
". 	c #FFFFD2",
"+ 	c #E5E5BD",
"@ 	c #F3F3C8",
"# 	c #BBBB9A",
"$ 	c #ADAD8E",
"% 	c #D3D3AE",
"& 	c #4C4C3E",
"* 	c #FCFCD0",
"= 	c #E0CFC8",
"- 	c #9A63B2",
"; 	c #C19FBE",
"> 	c #A4A487",
", 	c #2C2C23",
"' 	c #1F1F19",
") 	c #1B1B16",
"! 	c #000000",
"~ 	c #8C8C73",
"{ 	c #F3EDCE",
"] 	c #6816A2",
"^ 	c #5A009E",
"/ 	c #DDCBC7",
"( 	c #939379",
"_ 	c #72725E",
": 	c #DCDCB5",
"< 	c #F2F2C7",
"[ 	c #48483B",
"} 	c #090907",
"| 	c #D9D9B2",
"1 	c #DCCAC7",
"2 	c #B78FBB",
"3 	c #640FA1",
"4 	c #8847AC",
"5 	c #F1E9CD",
"6 	c #CBCBA7",
"7 	c #21211A",
"8 	c #888870",
"9 	c #FCFCCF",
"0 	c #C2C29F",
"a 	c #9E9E82",
"b 	c #7B7B65",
"c 	c #919177",
"d 	c #D7C3C6",
"e 	c #5A029E",
"f 	c #8C4DAE",
"g 	c #630EA1",
"h 	c #6F21A5",
"i 	c #8D7E82",
"j 	c #5F5F4E",
"k 	c #FBFAD1",
"l 	c #6D39AC",
"m 	c #530DA3",
"n 	c #5608A1",
"o 	c #610EA1",
"p 	c #ECE1CC",
"q 	c #8949AD",
"r 	c #6313A2",
"s 	c #D2BFC5",
"t 	c #A596BF",
"u 	c #4822AA",
"v 	c #4B1DA8",
"w 	c #4E17A6",
"x 	c #B294BD",
"y 	c #F7F2CF",
"z 	c #8A4BAD",
"A 	c #5805A0",
"B 	c #520FA3",
"C 	c #511DA8",
"D 	c #B8AAC3",
"E 	c #E3E3CE",
"F 	c #443DB3",
"G 	c #4032B0",
"H 	c #432CAE",
"I 	c #6A4FB3",
"J 	c #FCFCD1",
"K 	c #FDFCD1",
"L 	c #9F6FB5",
"M 	c #5210A3",
"N 	c #4C1BA8",
"O 	c #4725AB",
"P 	c #422FAF",
"Q 	c #9896C1",
"R 	c #FEFED2",
"S 	c #6A7ABF",
"T 	c #3546B7",
"U 	c #3842B6",
"V 	c #3D3DB4",
"W 	c #D0CDC5",
"X 	c #97977C",
"Y 	c #FBFBCF",
"Z 	c #FEFED1",
"` 	c #9D9D81",
" .	c #2C1E3E",
"..	c #4425A6",
"+.	c #4031B0",
"@.	c #3B3CB3",
"#.	c #3645B7",
"$.	c #7589C2",
"%.	c #F8F9D1",
"&.	c #B2C5CB",
"*.	c #2B5ABE",
"=.	c #2D56BD",
"-.	c #3051BB",
";.	c #8B98C3",
">.	c #95957A",
",.	c #0C0C0A",
"'.	c #454539",
").	c #81816A",
"!.	c #BEBE9C",
"~.	c #F5F5CA",
"{.	c #82826B",
"].	c #626250",
"^.	c #C1BCC3",
"/.	c #4445B5",
"(.	c #3547B8",
"_.	c #2F52BC",
":.	c #2A5CBF",
"<.	c #5586C6",
"[.	c #DCE8D0",
"}.	c #3578C6",
"|.	c #226AC4",
"1.	c #2466C3",
"2.	c #3F71C2",
"3.	c #F4F6D1",
"4.	c #505042",
"5.	c #1A1A15",
"6.	c #13130F",
"7.	c #1E1E18",
"8.	c #BDBD9C",
"9.	c #D7D7B1",
"0.	c #FDFDD1",
"a.	c #282820",
"b.	c #6C6C59",
"c.	c #D8DBCD",
"d.	c #4563BE",
"e.	c #295DC0",
"f.	c #2368C4",
"g.	c #1E72C7",
"h.	c #1F7BCA",
"i.	c #197CCB",
"j.	c #1A7BCA",
"k.	c #1D75C8",
"l.	c #B8D1CE",
"m.	c #F1F1C6",
"n.	c #F8F8CC",
"o.	c #B1B192",
"p.	c #545445",
"q.	c #A8A88A",
"r.	c #F9F9CD",
"s.	c #E8EDD0",
"t.	c #4D83C6",
"u.	c #1E73C8",
"v.	c #187FCC",
"w.	c #1388CF",
"x.	c #108DD1",
"y.	c #118BD0",
"z.	c #5DA9CF",
"A.	c #C7C7A4",
"B.	c #464639",
"C.	c #E4E4BC",
"D.	c #E8E8BF",
"E.	c #535344",
"F.	c #2F2F27",
"G.	c #6F6F5B",
"H.	c #A5A588",
"I.	c #C1C5A7",
"J.	c #4B8FBC",
"K.	c #1287CD",
"L.	c #0C95D4",
"M.	c #089DD7",
"N.	c #159ED5",
"O.	c #E3F2D2",
"P.	c #F0F0C6",
"Q.	c #414135",
"R.	c #37372C",
"S.	c #C3C3A1",
"T.	c #71715C",
"U.	c #34342B",
"V.	c #09161B",
"W.	c #011A24",
"X.	c #001F29",
"Y.	c #0E2126",
"Z.	c #25251E",
"`.	c #5D5D4C",
" +	c #AAAA8C",
".+	c #F6F6CB",
"++	c #E3E3BA",
"@+	c #A2A285",
"#+	c #386273",
"$+	c #07496B",
"%+	c #054968",
"&+	c #305D6B",
"*+	c #8A8A71",
"=+	c #9C9C80",
"-+	c #B4B494",
";+	c #D8D8B2",
">+	c #FAFACE",
",+	c #65A9CE",
"'+	c #1585CE",
")+	c #1289CF",
"!+	c #62B0D0",
"~+	c #6AA0CA",
"{+	c #1B78C9",
"]+	c #67A5CC",
"^+	c #6F96C7",
"/+	c #2565C3",
"(+	c #2467C3",
"_+	c #6D9AC8",
":+	c #758BC3",
"<+	c #2E55BD",
"[+	c #2D57BD",
"}+	c #738FC4",
"|+	c #7A81BF",
"1+	c #3644B7",
"2+	c #7984C0",
"3+	c #8076BB",
"4+	c #3F34B1",
"5+	c #3E35B1",
"6+	c #7F78BC",
"7+	c #866BB7",
"8+	c #4823AB",
"9+	c #4724AB",
"0+	c #856DB8",
"a+	c #F7F4D0",
"b+	c #B99ABE",
"c+	c #6328A8",
"d+	c #5013A4",
"e+	c #5014A5",
"f+	c #8A62B4",
"g+	c #E9DDCB",
"h+	c #A472B5",
"i+	c #6410A1",
"j+	c #5A019E",
"k+	c #59029F",
"l+	c #58039F",
"m+	c #58049F",
"n+	c #9763B2",
"o+	c #D3BBC4",
"p+	c #5C029E",
"q+	c #6C1CA4",
"r+	c #FBF8D1",
"s+	c #BB96BD",
"t+	c #752AA6",
"u+	c #7D36A9",
"v+	c #C3A3BF",
"w+	c #FBF9D1",
"x+	c #8A4AAD",
"y+	c #5E069F",
"z+	c #945AB0",
"A+	c #DBC7C7",
"B+	c #6918A3",
"C+	c #AC7FB8",
"D+	c #EFE6CD",
"E+	c #7E38A9",
". . . . . . . . . . . . . . . . . . . . . . . . . . . . . . . . ",
". . . . . . . . . . . . . . . . + . . . . . . . . . . . . . . . ",
". . . . . . . . . . . . @ # $ % & * . . . = - ; . . . . . . . . ",
". . . . . . . . . . . > , ' ' ) ! ~ . . { ] ^ ^ / . . . . . . . ",
". . . . . . . . . . ( ' _ : < [ ! } | . - ^ ^ ^ 1 . . . . . . . ",
". . . . . 2 3 4 5 6 7 8 . . 9 0 a b c d e ^ ^ f . . . . . . . . ",
". . . . . g ^ ^ h i j 9 . . . . . . k l m n o p . . . . . . . . ",
". . . . . q ^ ^ ^ r s . . . . . . . t u v w x . . . . . . . . . ",
". . . . . y z ^ A B C D . . . . . E F G H I J . . . . . . . . . ",
". . . . . . K L M N O P Q R . . . S T U V W X 6 Y . . . . . . . ",
". . . . . . Z `  ...+.@.#.$.%.. &.*.=.-.;.. >.! ,.'.).!.~.. . . ",
". . . . . . {.' ].^./.(._.:.<.[.}.|.1.2.3.. . 4.5.6.7.8.9.0.. . ",
". . . . . . a.b.. . c.d.e.f.g.h.i.j.k.l.. . . m.n.o.' !.. . . . ",
". . . . . . p., q.r.. s.t.u.v.w.x.y.z.. . . . . A.B.a.C.. . . . ",
". . . . . . D.E.' F.G.H.I.J.K.L.M.N.O.P.9.o.).Q.' R.S.. . . . . ",
". . . . . . . Z S.T.U.' ' ' V.W.X.Y.Z.' ' ' a.`. +.+. . . . . . ",
". . . . . . . . . . Z ++8.@+#+$+%+&+*+=+-+;+>+. . . . . . . . . ",
". . . . . . . . . . . . . . ,+'+)+!+. . . . . . . . . . . . . . ",
". . . . . . . . . . . . . . ~+k.{+]+. . . . . . . . . . . . . . ",
". . . . . . . . . . . . . . ^+/+(+_+. . . . . . . . . . . . . . ",
". . . . . . . . . . . . . . :+<+[+}+. . . . . . . . . . . . . . ",
". . . . . . . . . . . . . . |+1+T 2+. . . . . . . . . . . . . . ",
". . . . . . . . . . . . . . 3+4+5+6+. . . . . . . . . . . . . . ",
". . . . . . . . . . . . . . 7+8+9+0+. . . . . . . . . . . . . . ",
". . . . . . . . . . . . a+b+c+d+e+f+. . . . . . . . . . . . . . ",
". . . . . . . . . . g+h+i+j+k+l+m+n+. . . . . . . . . . . . . . ",
". . . . . . . R o+f p+^ ^ ^ ^ ^ q+= . . . . . . . . . . . . . . ",
". . . . . r+s+t+^ ^ ^ ^ ^ ^ u+v+w+. . . . . . . . . . . . . . . ",
". . . . . x+^ ^ ^ ^ ^ y+z+A+. . . . . . . . . . . . . . . . . . ",
". . . . . g ^ ^ ^ B+C+D+. . . . . . . . . . . . . . . . . . . . ",
". . . . . 2 g E+v+w+. . . . . . . . . . . . . . . . . . . . . . ",
". . . . . . . . . . . . . . . . . . . . . . . . . . . . . . . . "};
