/* XPM */
static const char * ost_small_xpm[] = {
"100 34 333 2",
"  	c #FFFFFF",
". 	c #FDFEFE",
"+ 	c #F0F5F5",
"@ 	c #F2F6F6",
"# 	c #FEFEFE",
"$ 	c #FAFCFC",
"% 	c #F4F8F8",
"& 	c #F6F9F9",
"* 	c #EEF4F4",
"= 	c #F9FBFB",
"- 	c #F5F8F8",
"; 	c #E8F0F0",
"> 	c #8FB3B4",
", 	c #5C9092",
"' 	c #538A8C",
") 	c #619395",
"! 	c #9BBBBC",
"~ 	c #F2F6F7",
"{ 	c #77A2A4",
"] 	c #DDE8E8",
"^ 	c #8BB0B1",
"/ 	c #568C8E",
"( 	c #6E9C9E",
"_ 	c #D5E2E3",
": 	c #FCFDFD",
"< 	c #B1CACB",
"[ 	c #6C9B9D",
"} 	c #548A8C",
"| 	c #7EA7A8",
"1 	c #D8E5E5",
"2 	c #DEE8E8",
"3 	c #7EA8A9",
"4 	c #E6EEEE",
"5 	c #86ACAE",
"6 	c #73A0A1",
"7 	c #E0E9EA",
"8 	c #E3ECEC",
"9 	c #5F9294",
"0 	c #EFF4F4",
"a 	c #5B8F91",
"b 	c #EAF0F1",
"c 	c #5A8E90",
"d 	c #588E90",
"e 	c #DAE6E6",
"f 	c #D4E2E2",
"g 	c #6A9A9B",
"h 	c #BBBEDF",
"i 	c #8C92C9",
"j 	c #A2A6D4",
"k 	c #EFF0F8",
"l 	c #A5C2C3",
"m 	c #79A4A6",
"n 	c #D6E3E4",
"o 	c #CFDEDF",
"p 	c #96B8B9",
"q 	c #7FA8A9",
"r 	c #B3CCCC",
"s 	c #A0BEBF",
"t 	c #B5CCCE",
"u 	c #88AEB0",
"v 	c #A2C0C1",
"w 	c #81A9AB",
"x 	c #98B9BA",
"y 	c #76A2A4",
"z 	c #D9E5E5",
"A 	c #7C83C2",
"B 	c #3640A1",
"C 	c #4B54AB",
"D 	c #E7E8F4",
"E 	c #F6F6FB",
"F 	c #8086C3",
"G 	c #424BA6",
"H 	c #5C64B3",
"I 	c #D2D5EA",
"J 	c #FAF8FC",
"K 	c #CFB6E1",
"L 	c #DCCAE9",
"M 	c #F3F7F7",
"N 	c #C8DADA",
"O 	c #BBD1D2",
"P 	c #F0F4F4",
"Q 	c #D83BA2",
"R 	c #E786C5",
"S 	c #C6D8D9",
"T 	c #5A8F91",
"U 	c #FBFCFC",
"V 	c #9ABABC",
"W 	c #72A0A1",
"X 	c #709EA0",
"Y 	c #DEE8E9",
"Z 	c #EDF2F3",
"` 	c #578C8E",
" .	c #5B9092",
"..	c #F8FAFA",
"+.	c #C5D7D8",
"@.	c #CFD1E8",
"#.	c #868CC6",
"$.	c #9096CB",
"%.	c #4851AA",
"&.	c #F9FAFC",
"*.	c #9D6AC1",
"=.	c #7730A9",
"-.	c #C8ACDC",
";.	c #FDF8FC",
">.	c #D976CC",
",.	c #DD85D1",
"'.	c #FFFEFE",
").	c #FFFEFF",
"!.	c #F3C5E3",
"~.	c #FEFAFD",
"{.	c #F0B6DD",
"].	c #EEAAD6",
"^.	c #EB9ACF",
"/.	c #E062B4",
"(.	c #F3C1E2",
"_.	c #ECF2F2",
":.	c #E4ECEC",
"<.	c #C2D5D6",
"[.	c #5E9293",
"}.	c #548B8D",
"|.	c #EDF3F3",
"1.	c #69999B",
"2.	c #C3D6D6",
"3.	c #ACB0D8",
"4.	c #636AB6",
"5.	c #636BB6",
"6.	c #DEE0F0",
"7.	c #FDFCFE",
"8.	c #7933AA",
"9.	c #A272C4",
"0.	c #EEC0E8",
"a.	c #BF1AA9",
"b.	c #F6DEF2",
"c.	c #F4C8E5",
"d.	c #CC0086",
"e.	c #E476BE",
"f.	c #EEACD8",
"g.	c #CD0388",
"h.	c #D11892",
"i.	c #FCF2F9",
"j.	c #EDA4D4",
"k.	c #DCE7E8",
"l.	c #C8D9DA",
"m.	c #F1F6F6",
"n.	c #5E9193",
"o.	c #ECF2F3",
"p.	c #CCCEE7",
"q.	c #8389C5",
"r.	c #454EA8",
"s.	c #F8F8FC",
"t.	c #A475C6",
"u.	c #7831AA",
"v.	c #CFB6E0",
"w.	c #FCF6FC",
"x.	c #D66BC8",
"y.	c #DA7ACD",
"z.	c #FEFDFE",
"A.	c #FEFBFD",
"B.	c #EEA8D6",
"C.	c #FDF3FA",
"D.	c #EB9CD0",
"E.	c #EEA9D6",
"F.	c #D01791",
"G.	c #E88BC8",
"H.	c #EAF1F1",
"I.	c #B3CBCC",
"J.	c #6C9B9C",
"K.	c #FCFCFC",
"L.	c #FEFEFF",
"M.	c #757CBE",
"N.	c #4650A9",
"O.	c #E4E5F2",
"P.	c #F4F4FA",
"Q.	c #767DBE",
"R.	c #3A44A3",
"S.	c #525BAE",
"T.	c #DAC6E8",
"U.	c #E6D8EF",
"V.	c #E4EDED",
"W.	c #EC9ED1",
"X.	c #F6D4EB",
"Y.	c #AFC9CA",
"Z.	c #67989A",
"`.	c #F7FAFA",
" +	c #96B7B8",
".+	c #8CB1B2",
"++	c #9CBCBD",
"@+	c #FCFCFE",
"#+	c #B1B5DB",
"$+	c #989DCF",
"%+	c #EAEBF5",
"&+	c #FDFDFE",
"*+	c #7BA5A7",
"=+	c #5D9193",
"-+	c #9DBCBD",
";+	c #B4CCCD",
">+	c #89AFB0",
",+	c #649698",
"'+	c #E0EAEA",
")+	c #D2E0E1",
"!+	c #98B8BA",
"~+	c #9EBDBE",
"{+	c #82AAAC",
"]+	c #609294",
"^+	c #83AAAC",
"/+	c #558C8E",
"(+	c #BBD0D1",
"_+	c #C0D4D4",
":+	c #5B9091",
"<+	c #629496",
"[+	c #92B5B6",
"}+	c #7CA6A8",
"|+	c #D2E1E1",
"1+	c #D0DFE0",
"2+	c #8DB1B2",
"3+	c #9DBCBE",
"4+	c #B6CDCE",
"5+	c #92B4B6",
"6+	c #83ABAC",
"7+	c #F1F5F6",
"8+	c #EBF2F2",
"9+	c #BCD2D2",
"0+	c #7BA5A6",
"a+	c #C6D8D8",
"b+	c #E9F0F0",
"c+	c #FEFFFF",
"d+	c #B8CFD0",
"e+	c #6F9D9E",
"f+	c #619495",
"g+	c #93B5B6",
"h+	c #729FA1",
"i+	c #B6CECE",
"j+	c #B0CACA",
"k+	c #97B8BA",
"l+	c #90B4B5",
"m+	c #C1D5D6",
"n+	c #7AA5A6",
"o+	c #609395",
"p+	c #95B7B8",
"q+	c #6B9A9C",
"r+	c #E6EEEF",
"s+	c #A7C3C4",
"t+	c #AAC6C7",
"u+	c #E2EBEB",
"v+	c #719EA0",
"w+	c #AEC8C8",
"x+	c #A4C1C2",
"y+	c #93B6B7",
"z+	c #6A9A9C",
"A+	c #7DA6A8",
"B+	c #9EBCBE",
"C+	c #588D8F",
"D+	c #A8C4C5",
"E+	c #E2EBEC",
"F+	c #7CA6A7",
"G+	c #A5C2C2",
"H+	c #E2ECEC",
"I+	c #5E9294",
"J+	c #E5EDEE",
"K+	c #BED2D3",
"L+	c #F4F7F7",
"M+	c #BFD4D4",
"N+	c #6D9C9D",
"O+	c #BED2D4",
"P+	c #DEE9E9",
"Q+	c #D6E3E3",
"R+	c #DCE8E8",
"S+	c #A6C2C3",
"T+	c #9CBCBC",
"U+	c #78A4A5",
"V+	c #75A1A3",
"W+	c #669798",
"X+	c #679899",
"Y+	c #99BABB",
"Z+	c #FCFEFE",
"`+	c #ADC7C8",
" @	c #CBDCDC",
".@	c #619496",
"+@	c #EEF3F3",
"@@	c #669799",
"#@	c #F4F7F8",
"$@	c #6D9C9E",
"%@	c #B2CBCC",
"&@	c #7AA4A6",
"*@	c #A1BFC0",
"=@	c #DBE6E7",
"-@	c #A9C4C5",
";@	c #74A1A2",
">@	c #AAC6C6",
",@	c #E8EFEF",
"'@	c #68989A",
")@	c #EAF0F0",
"!@	c #A0BEC0",
"~@	c #E0EAEB",
"{@	c #DAE6E7",
"]@	c #69999A",
"^@	c #FAFBFB",
"/@	c #6C9C9D",
"(@	c #91B4B6",
"_@	c #8EB2B3",
":@	c #558B8D",
"<@	c #DBE7E7",
"[@	c #578D8F",
"}@	c #8AAFB0",
"|@	c #5D9192",
"1@	c #8EB2B4",
"2@	c #94B6B8",
"3@	c #C4D7D8",
"4@	c #94B6B7",
"5@	c #74A0A2",
"6@	c #D8E4E5",
"7@	c #E1EBEB",
"8@	c #ADC8C8",
"9@	c #729FA0",
"0@	c #B8CECF",
"a@	c #B2CACB",
"b@	c #8AAFB1",
"c@	c #B0C9CA",
"d@	c #AFC8C9",
"e@	c #A4C2C3",
"f@	c #B8CED0",
"g@	c #B9CFD0",
"h@	c #C3D6D7",
"i@	c #8BB0B2",
"j@	c #C9DADB",
"k@	c #8CB0B2",
"l@	c #AEC8C9",
"m@	c #88AEAF",
"n@	c #B9D0D0",
"o@	c #D7E4E4",
"p@	c #8AB0B1",
"q@	c #8DB2B3",
"r@	c #CADBDC",
"                                                                                                                                                                                                        ",
"                                                                                                                                                                                                        ",
"                                                                                                                                                                                                        ",
"                                                                                                                                                                                                        ",
"                                                                                              . + @ #                     $ %                 & * $                     = -                             ",
"                                                                                          ; > , ' ' ) ! @     ~ { { { ] ^ / ' ( _       : < [ } ' / | 1     2 { { 3 4 5 / ' 6 7                         ",
"                                                                                        8 9 ' ' ' ' ' ' [ @   0 ' ' ' a ' ' ' ' , b   : 5 ' ' / c ' ' d e   f ' ' / , ' ' ' ' g :                       ",
"                      # h i j k                                                         l ' ' m n o g ' ' p   0 ' ' ' q r s / ' ' s   t ' ' u & . v ' ' w   f ' ' ' [ x y ' ' ' z                       ",
"                      A B B B C D         E F G H I         J K L                       M N O P Q R S ' ' T U 0 ' ' ' *     V ' ' W   X ' ' Y . . Z ' ' ` $ f ' '  .:   ..d ' ' +.                      ",
"                    @.B B B B B #.        $.B B B %.&.      *.=.=.-.    ;.>.,.'.  ).!.~.  {.].^./.(._.' ' ' :.0 ' ' ' *     <.' ' [.= }.' ' / / / / ' ' ' |.f ' ' ,       1.' ' 2.                      ",
"                    3.B B B B B 4.        5.B B B B 6.    7.8.=.=.9.    0.a.a.b.  c.d.e.f.g.h.i.j.  M ' ' ' k.0 ' ' ' *     l.' '  .m.' ' ' , n.n.n.n.n.n.o.f ' ' ,       ( ' ' 2.                      ",
"                    p.B B B B B q.        i B B B r.s.      t.=.u.v.    w.x.y.z.  A.B.C.  D.E.f.F.G.4 ' ' ' H.0 ' ' ' *     I.' ' J.K.` ' ' 2               f ' ' ,       ( ' ' 2.                      ",
"                    L.M.B B B N.O.        P.Q.R.S.p.        7.T.U.                        # V._.W.X.Y.' ' Z.# 0 ' ' ' *   `.X ' '  +  | ' ' .+:       H.++  f ' ' ,       ( ' ' 2.                      ",
"                      @+#+q.$+%+              &+                                        = *+' =+-+ +` ' ' ;+  0 ' ' ' m >+,+' ' / '+  )+}.' ' J.!+~+{+/ ]+  f ' ' ,       ( ' ' 2.                      ",
"                                                                                        $ ^+' ' ' ' ' ' p #   0 ' ' ' ' ' ' ' /+(+      _+:+' ' ' ' ' ' <+  f ' ' ,       ( ' ' 2.                      ",
"                                                                                          # l.[+}+| x |+      0 ' ' ' 1+v 2+3+2           + 4+5+{+6+ +O 7+  8+Y.Y.;+      9+Y.Y.8                       ",
"                                    ! 0+0+a+                                                                  0 ' ' ' _.                                                                                ",
"                                    }+' ' ;+                                                                  0 ' ' ' _.                                                                                ",
"                      - b+7+c+      }+' ' ;+                                                      = H.0 #     0 ' ' ' _.                                                    # _.4 &                     ",
"                # d+e+' ' ' f+g+= h+c ' ' <+( ( i+8 ( ( X = j+6 k+4 ( ( ( :     l+( ( m+      N n+/ ' ' o+p++.[ ' ' ' q+( ( r+s+( ( t+    u+( ( v+#   w+( ( x+; y+z+1+  % ~+9 ' ' }.A+]                 ",
"                B+' ' ' ' ' ' ' @ C+' ' ' ' ' ' D+Y ' ' }.m ' ' u E+' ' ' U     F+' ' 4+    l ' ' ' ' ' ' ' G+' ' ' ' ' ' ' H+p ' ' V     k.' ' / #   ~+' ' X =+' ' N % v+' ' n.I+' ' , J+              ",
"              * }.' ' K++ J+< <+L+M+N+' ' > O+O+P+Y ' ' ' ' ' ' u E+' ' ' U     F+' ' 4+  Q+} ' ' y+k.R+S+d S ;+' ' ' I.O+O+% p ' ' V     k.' ' / #   ~+' ' ' ' ' ' N T+' ' s . . p ' ' [+              ",
"              P+' ' ' j+*     % .   }+' ' ;+      Y ' ' }._+o.& 0 E+' ' ' U     F+' ' 4+  l+' ' U+#       2 0 0 ' ' ' *       p ' ' V     k.' ' / #   ~+' ' V+f % m.@ , ' } * ...._ ' ' W+              ",
"              ..n.' ' ' ' X+Y+H.    }+' ' ;+      Y ' ' / Z+      E+' ' ' U     F+' ' 4+  v+' ' `+            0 ' ' ' *       p ' ' V     k.' ' / #   ~+' ' y+      V.' ' ' ' ' ' ' ' ' ` #             ",
"                 @n.' ' ' ' ' .@+@  }+' ' ;+      Y ' ' / Z+      E+' ' ' U     F+' ' 4+  z+' ' d+            0 ' ' ' *       p ' ' V     k.' ' / #   ~+' ' y+      R+' ' ' @@@@@@@@@@@@1..             ",
"                  #@M+x $@' ' ' %@  }+' ' ;+      Y ' ' / Z+      E+' ' ' M     F+' ' 4+  &@' ' *@            0 ' ' ' *       p ' ' y+    k.' ' / #   ~+' ' y+      _.' ' ' +                           ",
"              =@-@..    # ;@' ' >@  q ' ' *@      Y ' ' / Z+      ,@' ' ' 9+# '+'@' ' 4+  s+' ' .@)@    U !@~@m.' ' ' {@      ++' ' ]@@ ^@Y.' ' / #   ~+' ' y+        /@' ' x .       e -+              ",
"              f ' ]+(@G+_@:@' }.<@  !+' ' [@_@}@%@Y ' ' / Z+      : [.' ' ' d ' ' ' ' 4+  + <+' ' |@1@[+@@' =@# ]+' ' @@2@n+V.O ' ' ' /+/ ' ' ' / #   ~+' ' y+        3@' ' ' q+(@4@5@' 5@              ",
"              6@' ' ' ' ' ' C+i+    7@, ' ' ' ' D+Y ' ' / Z+        8@' ' ' ' 9@[ ' ' 4+    2 z+' ' ' ' ' ' Y   < ' ' ' ' ' H+& z+' ' ' }.>+' ' / #   ~+' ' y+          0@T ' ' ' ' ' ' 0+              ",
"                8 a@2@b@[+c@H.        8+d@k+p e@] @ f@f@g@#           h@1@i@4+$ j@f@f@~@      $ S 3+k@_@-@P+      _ x+p+Y+l@-   P x+m@k+e + f@f@n@c+  o@f@f@)+            + d+x p@q@v r@^@              ",
"                                                                                                                                                                                                        ",
"                                                                                                                                                                                                        ",
"                                                                                                                                                                                                        ",
"                                                                                                                                                                                                        "};
