/* XPM */
static const char * rigid_transform_xpm[] = {
"32 32 332 2",
"  	c None",
". 	c #FFFFD2",
"+ 	c #FDFDD1",
"@ 	c #CACAA6",
"# 	c #909076",
"$ 	c #656553",
"% 	c #48483A",
"& 	c #3A3A2F",
"* 	c #3B3B30",
"= 	c #49493B",
"- 	c #919177",
"; 	c #CBCBA7",
"> 	c #FDFDD0",
", 	c #F5F5CA",
"' 	c #9D9D81",
") 	c #414135",
"! 	c #282820",
"~ 	c #2C2C23",
"{ 	c #525243",
"] 	c #72725D",
"^ 	c #81816A",
"/ 	c #808069",
"( 	c #71715D",
"_ 	c #404034",
": 	c #9C9C80",
"< 	c #F6F6CA",
"[ 	c #BBBB9A",
"} 	c #3F3F33",
"| 	c #626250",
"1 	c #B6B696",
"2 	c #F4F4C9",
"3 	c #F5F5C9",
"4 	c #61614F",
"5 	c #3E3E32",
"6 	c #BABA99",
"7 	c #FCFCCF",
"8 	c #82826A",
"9 	c #525242",
"0 	c #CFCFAA",
"a 	c #FBFAD1",
"b 	c #8C59B1",
"c 	c #8951AF",
"d 	c #FAF8D1",
"e 	c #535344",
"f 	c #82826B",
"g 	c #E7E7BE",
"h 	c #FBFBCF",
"i 	c #6A6A57",
"j 	c #8B8B72",
"k 	c #D4C7C8",
"l 	c #4F16A6",
"m 	c #5112A4",
"n 	c #E0D3C9",
"o 	c #6C6C58",
"p 	c #F0F0C6",
"q 	c #72725E",
"r 	c #4C4C3E",
"s 	c #292921",
"t 	c #A6A688",
"u 	c #AD9FC1",
"v 	c #4823AB",
"w 	c #4D23AA",
"x 	c #F9F7D0",
"y 	c #A4A487",
"z 	c #5F5F4E",
"A 	c #6E6E5B",
"B 	c #2E2E25",
"C 	c #000000",
"D 	c #272720",
"E 	c #D3D3AD",
"F 	c #837CBC",
"G 	c #4131AF",
"H 	c #6552B4",
"I 	c #DBDBB4",
"J 	c #36362C",
"K 	c #020201",
"L 	c #25251E",
"M 	c #010101",
"N 	c #0E0E0C",
"O 	c #9F9F83",
"P 	c #9485BD",
"Q 	c #4634B0",
"R 	c #554FB6",
"S 	c #6B6DBB",
"T 	c #8289C0",
"U 	c #9AA2C5",
"V 	c #B2BAC8",
"W 	c #CCD1CB",
"X 	c #545CBA",
"Y 	c #3A3EB4",
"Z 	c #8785BE",
"` 	c #FEFED1",
" .	c #090907",
"..	c #E1E1BA",
"+.	c #404035",
"@.	c #E0E0B8",
"#.	c #5549B4",
"$.	c #3B3BB3",
"%.	c #3743B6",
"&.	c #3449B8",
"*.	c #314EBA",
"=.	c #3051BB",
"-.	c #2F52BC",
";.	c #2F52BB",
">.	c #314FBA",
",.	c #334AB9",
"'.	c #ABB2C7",
").	c #D4D4AF",
"!.	c #303028",
"~.	c #D5D5AF",
"{.	c #5052B7",
"].	c #3546B7",
"^.	c #5A70BE",
"/.	c #718AC3",
"(.	c #547AC2",
"_.	c #376AC1",
":.	c #2860C1",
"<.	c #285FC0",
"[.	c #2A5CBF",
"}.	c #2D57BD",
"|.	c #748BC3",
"1.	c #F9F9CD",
"2.	c #C5C5A2",
"3.	c #4B5ABA",
"4.	c #3050BB",
"5.	c #91A8C7",
"6.	c #F3F7D1",
"7.	c #D8E4CF",
"8.	c #7AA2C9",
"9.	c #2662C2",
"0.	c #2B5ABF",
"a.	c #C6D1CC",
"b.	c #F0EBCE",
"c.	c #FBF9D1",
"d.	c #4762BD",
"e.	c #2B5ABE",
"f.	c #8EADC9",
"g.	c #F4F8D1",
"h.	c #397CC7",
"i.	c #2664C2",
"j.	c #4B73C1",
"k.	c #FAFBD1",
"l.	c #BEBBC7",
"m.	c #7662B6",
"n.	c #4C1DA8",
"o.	c #7744AE",
"p.	c #4468BF",
"q.	c #2761C1",
"r.	c #8CB1CB",
"s.	c #B2CFCE",
"t.	c #226CC5",
"u.	c #6682C2",
"v.	c #4756BA",
"w.	c #3C3AB3",
"x.	c #432DAE",
"y.	c #4A20A9",
"z.	c #6C39AC",
"A.	c #FEFED2",
"B.	c #DBD9CC",
"C.	c #A1A5C4",
"D.	c #6379C0",
"E.	c #2D5CBF",
"F.	c #2467C3",
"G.	c #7EAECC",
"H.	c #E8F6D2",
"I.	c #A6D9D3",
"J.	c #79BDD1",
"K.	c #4F9CCD",
"L.	c #1F71C7",
"M.	c #2C57BD",
"N.	c #3A3CB4",
"O.	c #5C4CB4",
"P.	c #AA98BF",
"Q.	c #F2EECF",
"R.	c #FCFBD1",
"S.	c #C7AFC2",
"T.	c #9071B7",
"U.	c #583DB0",
"V.	c #3F34B1",
"W.	c #3842B6",
"X.	c #295DC0",
"Y.	c #226BC4",
"Z.	c #237DCA",
"`.	c #DBECD1",
" +	c #FAFDD2",
".+	c #19ADD9",
"++	c #099BD6",
"@+	c #0F8ED1",
"#+	c #1681CD",
"$+	c #1D74C8",
"%+	c #2566C3",
"&+	c #315DBE",
"*+	c #7788C2",
"=+	c #CBCCCA",
"-+	c #A87BB7",
";+	c #540CA2",
">+	c #4D1AA7",
",+	c #4627AC",
"'+	c #3E35B1",
")+	c #3B46B6",
"!+	c #647BC1",
"~+	c #93AEC9",
"{+	c #2970C5",
"]+	c #1B78C9",
"^+	c #49A0CF",
"/+	c #FCFED2",
"(+	c #28B1D8",
"_+	c #099AD6",
":+	c #2899D1",
"<+	c #5CA7CE",
"[+	c #8EB9CD",
"}+	c #BDD1CE",
"|+	c #EFF3D1",
"1+	c #B994BC",
"2+	c #6132AC",
"3+	c #8F7CBB",
"4+	c #C1BEC7",
"5+	c #F4F4D0",
"6+	c #9BBCCC",
"7+	c #1D75C8",
"8+	c #93C9D1",
"9+	c #F8FCD2",
"0+	c #E9F6D2",
"a+	c #F4EFCF",
"b+	c #FDFDD2",
"c+	c #5291C9",
"d+	c #1A79CA",
"e+	c #1E86CD",
"f+	c #DAEBD1",
"g+	c #DEE9D0",
"h+	c #2874C7",
"i+	c #1C76C9",
"j+	c #4893CB",
"k+	c #9BC3CE",
"l+	c #9CC1CD",
"m+	c #9DBFCC",
"n+	c #9FBBCB",
"o+	c #A1B7CA",
"p+	c #C8D1CC",
"q+	c #8FB0CA",
"r+	c #2369C4",
"s+	c #216CC5",
"t+	c #236AC4",
"u+	c #2565C2",
"v+	c #2E55BD",
"w+	c #354DB9",
"x+	c #E8EACF",
"y+	c #797963",
"z+	c #E8E8BF",
"A+	c #EFF1D0",
"B+	c #476CC0",
"C+	c #2A5FC0",
"D+	c #2E63C0",
"E+	c #3061C0",
"F+	c #325CBE",
"G+	c #3556BC",
"H+	c #394FB9",
"I+	c #636BBC",
"J+	c #F9F9D1",
"K+	c #F1F1C7",
"L+	c #98987D",
"M+	c #6F6F5B",
"N+	c #1A1A15",
"O+	c #C1C19F",
"P+	c #FCFCD2",
"Q+	c #6A75BE",
"R+	c #324FBA",
"S+	c #B8C4CA",
"T+	c #CECEA9",
"U+	c #7B7B66",
"V+	c #A5A588",
"W+	c #040403",
"X+	c #8A8A71",
"Y+	c #958DBF",
"Z+	c #3C39B2",
"`+	c #3A3DB4",
" @	c #9499C3",
".@	c #95957B",
"+@	c #080806",
"@@	c #B5B595",
"#@	c #DCDCB5",
"$@	c #11110E",
"%@	c #87876F",
"&@	c #FAFACD",
"*@	c #BFB0C3",
"=@	c #432CAE",
"-@	c #756AB9",
";@	c #F2F2C7",
">@	c #696956",
",@	c #0A0A08",
"'@	c #EEEEC4",
")@	c #8D8D74",
"!@	c #5F5F4D",
"~@	c #C4C4A1",
"{@	c #6E3DAD",
"]@	c #623EAF",
"^@	c #F2F0CF",
"/@	c #C2C2A0",
"(@	c #2D2D24",
"_@	c #505041",
":@	c #AEAE8F",
"<@	c #BDA1BF",
"[@	c #8352B0",
"}@	c #E2D8CB",
"|@	c #E9E9C0",
"1@	c #EAEAC1",
"2@	c #F2F2C8",
"3@	c #2F2F26",
"4@	c #313128",
"5@	c #84846C",
"6@	c #D9D9B3",
"7@	c #85856D",
"8@	c #313127",
"9@	c #96967B",
"0@	c #E3E3BB",
"a@	c #2D2D25",
"b@	c #454538",
"c@	c #757560",
"d@	c #95957A",
"e@	c #A5A587",
"f@	c #74745F",
"g@	c #444437",
"h@	c #E2E2BA",
"i@	c #EDEDC3",
"j@	c #A8A88A",
"k@	c #6E6E5A",
"l@	c #414134",
"m@	c #2A2A21",
"n@	c #434336",
"o@	c #6D6D59",
"p@	c #FAFACE",
"q@	c #FBFBCE",
". . . . . . . . . . . . . . . . . . . . . . . . . . . . . . . . ",
". . . . . . . . . . + @ # $ % & * = $ - ; > . . . . . . . . . . ",
". . . . . . . . , ' ) ! ~ { ] ^ / ( { ~ ! _ : < . . . . . . . . ",
". . . . . . . [ } ! | 1 2 . . . . . . 3 1 4 ! 5 6 . . . . . . . ",
". . . . . 7 8 ! 9 0 . . . . . . . . a b c d 0 e ! f 7 . . . . . ",
". . . g h i ! j h . . . . . . . . . k l m n . h j ! o h p . . . ",
". . . q r s t . . . . . . . . . . . u v w x . . . y ! z A . . . ",
". . . B C D E . . . . . . . . . . . F G H . . . . I J K L . . . ",
". . g M N O . . . . P Q R S T U V W X Y Z . . . . ` -  .C ... . ",
". . y +.@.. . . . . #.$.%.&.*.=.-.;.>.,.'.. . . . . . ).!.O . . ",
". . ~.> . . . . . . {.].^./.(._.:.<.[.}.|.. . . . . . . 1.2.. . ",
". . . . . . . . . . 3.4.5.. . . 6.7.8.9.0.a.. . . . b.c.. . . . ",
". . . . . . . . . . d.e.f.. . . . . g.h.i.j.k.k.l.m.n.o.. . . . ",
". . . . . . . . . . p.q.r.. . . . . . s.t.:.u.v.w.x.y.z.. . . . ",
". . . . . . A.B.C.D.E.F.G.. . . H.I.J.K.L.i.M.,.N.O.P.Q.. . . . ",
". . . R.S.T.U.V.W.4.X.Y.Z.`..  +.+++@+#+$+%+&+*+=+A.. . . . . . ",
". . . -+;+>+,+'+)+!+~+{+]+^+/+/+(+_+:+<+[+}+|+. . . . . . . . . ",
". . . 1+;+2+3+4+5+. . 6+7+#+8+. 9+0+. . . . . . . . . . . . . . ",
". . . . a+. . . . . . b+c+d+e+f+. . . . . . . . . . . . . . . . ",
". . . . . . . . . . . . g+h+i+j+k+l+m+n+o+p+. . . . . . . . . . ",
". . A.. . . . . . . . . . q+r+t.s+t+u+X.v+w+x+. . . . . . . . . ",
". . y+z+. . . . . . . . A+B+[.C+D+E+F+G+H+I+J+. . . . . K+L+. . ",
". . M+N+O+. . . . . . P+Q+,.R+S+. . . . . . . . . . . T+L U+. . ",
". . V+C W+X+` . . . . Y+Z+`+ @. . . . . . . . . . . .@+@C @@. . ",
". . #@C $@%@&@. . . *@,+=@-@b+. . . . . . . . . . ;@>@,@K '@. . ",
". . . )@!@B ~@. . . {@>+]@^@. . . . . . . . . . . /@(@z q . . . ",
". . . . K+_@(@:@. . <@[@}@. . . . . . . . . . . :@(@{ ;@7 . . . ",
". . . . . ;@4 ! ] |@. . . . . . . . . . . . 1@] ! 4 2@. . . . . ",
". . . . . . > L+3@4@5@6@. . . . . . . . 6@7@8@3@9@> . . . . . . ",
". . . . . . . . 0@y+a@! b@c@d@y e@d@f@g@! (@y+h@. . . . . . . . ",
". . . . . . . . . . i@j@k@l@m@! ! s n@o@j@'@. . . . . . . . . . ",
". . . . . . . . . . . . . . p@'@'@q@. . . . . . . . . . . . . . "};
