/* XPM */
static const char *rotamer_transform_xpm[] = {
/* columns rows colors chars-per-pixel */
"32 32 189 2",
"   c #030302",
".  c #0B0B09",
"X  c #25251E",
"o  c #39392E",
"O  c #3E3E33",
"+  c #61614F",
"@  c #70705C",
"#  c #7A7A64",
"$  c #009E55",
"%  c #05A057",
"&  c #01A25B",
"*  c #0CA35A",
"=  c #0B9B66",
"-  c #04A862",
";  c #1BA962",
":  c #08B16E",
">  c #09B370",
",  c #0CB877",
"<  c #0EBB7B",
"1  c #18B472",
"2  c #2EAF6B",
"3  c #2EBB79",
"4  c #40B674",
"5  c #919177",
"6  c #99997E",
"7  c #3D36B1",
"8  c #3B3BB3",
"9  c #5A009D",
"0  c #4D1892",
"q  c #60099F",
"w  c #530DA2",
"e  c #5809A0",
"r  c #4E18A7",
"t  c #4C1CA8",
"y  c #5211A4",
"u  c #620CA0",
"i  c #6410A1",
"p  c #6917A2",
"a  c #6A18A2",
"s  c #4823AA",
"d  c #442AAD",
"f  c #7327A6",
"g  c #762CA7",
"h  c #782FA7",
"j  c #6133AB",
"k  c #2D578D",
"l  c #257288",
"z  c #3645B7",
"x  c #3944B6",
"c  c #3749B7",
"v  c #324CB9",
"b  c #2F53BC",
"n  c #2B5ABE",
"m  c #3050BB",
"M  c #5248B3",
"N  c #6B55B4",
"B  c #516EBE",
"V  c #7F76BB",
"C  c #285FC0",
"Z  c #1D75C8",
"A  c #187DCB",
"S  c #2761C1",
"D  c #216DC5",
"F  c #2370C6",
"G  c #823EAB",
"H  c #8542AB",
"J  c #8847AC",
"K  c #864FAF",
"L  c #8949AD",
"P  c #9053AF",
"I  c #9E6AB3",
"U  c #9878B8",
"Y  c #778B9D",
"T  c #4CB794",
"R  c #0FC081",
"E  c #14C182",
"W  c #12C689",
"Q  c #15C88B",
"!  c #15CE93",
"~  c #19CF94",
"^  c #16D095",
"/  c #19D59C",
"(  c #25CA8D",
")  c #3CD69E",
"_  c #1BDBA4",
"`  c #1DDEA8",
"'  c #20DEA7",
"]  c #32DBA3",
"[  c #1FE2AE",
"{  c #23E1AB",
"}  c #20E6B2",
"|  c #22E9B5",
" . c #2BEAB7",
".. c #24EDBC",
"X. c #39E8B4",
"o. c #50C587",
"O. c #58C688",
"+. c #42D79E",
"@. c #51D59A",
"#. c #61C384",
"$. c #6BC789",
"%. c #74CA8D",
"&. c #72D69C",
"*. c #53E2AB",
"=. c #63E3AE",
"-. c #62EDBA",
";. c #68EBB8",
":. c #1486CF",
">. c #1388CF",
",. c #108BD0",
"<. c #0B96D4",
"1. c #129CD4",
"2. c #2380CA",
"3. c #3988CA",
"4. c #05A2D8",
"5. c #5281C4",
"6. c #668DC4",
"7. c #7899C6",
"8. c #6BA8CC",
"9. c #74B8D0",
"0. c #25F2C1",
"q. c #28F7C8",
"w. c #2BFCCF",
"e. c #72F7C7",
"r. c #7DF3C1",
"t. c #A3A386",
"y. c #948DBF",
"u. c #B58DBA",
"i. c #B992BB",
"p. c #BF9CBD",
"a. c #BEB3BA",
"s. c #C4A4BF",
"d. c #89D298",
"f. c #A4DCA5",
"g. c #8FE4AF",
"h. c #90E0AA",
"j. c #9CE8B3",
"k. c #A2EEBC",
"l. c #A8EFBC",
"z. c #BBE5B0",
"x. c #B4ECBA",
"c. c #D2D2AC",
"v. c #D6D6B0",
"b. c #C4E9B5",
"n. c #C5EEBB",
"m. c #D5F0BE",
"M. c #D9F1BF",
"N. c #E9E9BF",
"B. c #BDB8C6",
"V. c #BABFC8",
"C. c #C7A9C0",
"Z. c #C9ABC0",
"A. c #CDB4C2",
"S. c #C4BCC6",
"D. c #D0BDC4",
"F. c #8CC3D0",
"G. c #B4C4CB",
"H. c #BDC3C9",
"J. c #B3CCCD",
"K. c #BCCDCD",
"L. c #B0D1CF",
"P. c #B8D3CF",
"I. c #AED5D0",
"U. c #ACDCD3",
"Y. c #B5DAD1",
"T. c #8EF1C0",
"R. c #91F8C8",
"E. c #BDF6C6",
"W. c #C2C0C8",
"Q. c #DCC9C6",
"!. c #DCD5CA",
"~. c #D7DCCC",
"^. c #E1D0C8",
"/. c #DFE3CE",
"(. c #CAF3C3",
"). c #D3F2C1",
"_. c #DFFBCD",
"`. c #EAEAC0",
"'. c #ECE1CB",
"]. c #F0E9CD",
"[. c #E3F4C3",
"{. c #EDFACB",
"}. c #F5F2CD",
"|. c #F2FBCD",
" X c #FAFCCE",
".X c #E3EDD0",
"XX c #F6F4D0",
"oX c #F9F6D0",
"OX c #FEFED1",
/* pixels */
"OXOXOXOXOXOXOXOXOXOXOXOXOXOXOXOXOXOXOXOXOXOXOXOXOXOXOXOXOXOXOXOX",
"OXOXOXOXOXOXOXOXOXOXOXOXOXoXZ.'.OXOXOXOXOXOXOXOXOXOXOXOXOXOXOXOX",
"OXOXOXOXOXOXOXOXOXOXOXOXOXu.9 u '.OXOXOXOXOXOXOXOXOXOXOXOXOXOXOX",
"OXOXOXOXOXOXOXOXOXOXOXOXOXi.9 9 P OXOXOXOXOXOXOXOXOXOXOXOXOXOXOX",
"OXOXOXOXOXOXOXOXOXOXOXOXOXoXh 9 9 A.OXOXOXOXOXOXOXOXOXOXOXOXOXOX",
"OXOXOXOXOXOXOXOXOXOXOXOXOXOXQ.e y j XXOXOXOXOXOXOXOXOXOX^.].OXOX",
"OXOXOXOXOXOXOXOXOXOXOXOXOXOXOXU s d y.OXOXOXOXOXOXOXD.G 9 e ].OX",
"OXOXOXOXOXOXOXOXOXOXOXOXOXOXOX}.M 8 v ~.OXOXOXOXS.N t w 9 u '.OX",
"OXOXOXOXOXOXOXOXOXOXOXOXOXOXOXOXV.m n 5.OXOXG.B z 8 d r K Q.OXOX",
"OXOXOXz.; $.OXOXOXOXOXOXOXOXOXOXOX6.D Z 8.3.D S b x V !.OXOXOXOX",
"OXOXOX%.$ $ d.OXOXOXOXOXOXOXOXOXOX.X2.,.,.,.A F 7./.OXOXOXOXOXOX",
"OXOXOXM.* $ $ b.OXOXOXOXOXOXOXOXOXOXF.<.4.<.9..XOXOXOXOXOXOXOXOX",
"OXOXOXOXf.$ $ ; {.OXOXOXOXOXOXN.5 # I.<.4.U.OXOXOXOXOXOXOXOXOXOX",
"OXOXOXOXOX#.& - o.OXOXOXOXOX}.X   c.L.:.,.Y.OXOXOXOXOXOXOXOXOXOX",
"OXOXOXOXOX|.3 > , h.OXOXOX6 O o @ OXJ.Z Z P.OXOXOXOXOXOXOXOXOXOX",
"OXOXOXOXOXOX).E R Q (.OXN.  . v.OXOXG.n S K.OXOXOXOXOXOXOXOXOXOX",
"OXOXOXOXOXOXOXj.! / ] {.t.+ `.OXOXOXV.v v W.OXOXOXOXOXOXOXOXOXOX",
"OXOXOXOXOXOXOXOX=.` { -._.|.OXOXOXOXB.7 8 S.OXOXOXOXOXOXOXOXOXOX",
"OXOXOXOXOXOXOXOX{.X...0.0.| ' ] +.@.T l k S.OXOXOXOXOXOXOXOXOXOX",
"OXOXOXOXOXOXOXOXE. .0.w.q...[ _ ! W < > - Y OXOXOXOXOXOXOXOXOXOX",
"OXOXOXOXOXOXOXl.` } ..e.R.r.;.*.) ( < : = 0 Z.OXOXOXOXOXOXOXOXOX",
"OXOXOXOXOXOXg.! _ _ T.OXOXOXOXOXOXOXOXa.9 9 9 Q.OXOXOXOXOXOXOXOX",
"OXOXOXOXOX&.R Q ~ k.OXOXOXOXOXOXOXOXOXOXi.9 9 p '.OXOXOXOXOXOXOX",
"OXOXOX|.O.: , E x.OXOXOXOXOXOXOXOXOXOXOXOXI 9 9 g XXOXOXOXOXOXOX",
"OXOX|.4 $ - 1 n.OXOXOXOXOXOXOXOXOXOXOXOXOXOXL 9 e H OXOXOXOXOXOX",
"OXOXd.$ $ 2 m.OXOXOXOXOXOXOXOXOXOXOXOXOXOXOXXXg 9 9 I OXOXOXOXOX",
"OXOXz.$ 2 ).OXOXOXOXOXOXOXOXOXOXOXOXOXOXOXOXOX'.a 9 9 u.OXOXOXOX",
"OXOXOX X XOXOXOXOXOXOXOXOXOXOXOXOXOXOXOXOXOXOXOXQ.u 9 e Z.OXOXOX",
"OXOXOXOXOXOXOXOXOXOXOXOXOXOXOXOXOXOXOXOXOXOXOXOXOXZ.9 9 H OXOXOX",
"OXOXOXOXOXOXOXOXOXOXOXOXOXOXOXOXOXOXOXOXOXOXOXOXOXOXp.f C.OXOXOX",
"OXOXOXOXOXOXOXOXOXOXOXOXOXOXOXOXOXOXOXOXOXOXOXOXOXOXOXOXOXOXOXOX",
"OXOXOXOXOXOXOXOXOXOXOXOXOXOXOXOXOXOXOXOXOXOXOXOXOXOXOXOXOXOXOXOX"
};
