/* XPM */
static const char * torsion_transform_xpm[] = {
"32 32 200 2",
"  	c None",
". 	c #FFFFD2",
"+ 	c #FCFCD0",
"@ 	c #F8F8CC",
"# 	c #CDCDA8",
"$ 	c #787862",
"% 	c #A4A486",
"& 	c #FEFED1",
"* 	c #B78FBB",
"= 	c #630EA1",
"- 	c #8A4AAD",
"; 	c #FBF8D1",
"> 	c #E4E4BC",
", 	c #A5A587",
"' 	c #25251E",
") 	c #2B2B23",
"! 	c #1F1F19",
"~ 	c #898970",
"{ 	c #EFE6CD",
"] 	c #5E069F",
"^ 	c #5A009E",
"/ 	c #D1B8C3",
"( 	c #C8C8A5",
"_ 	c #1C1C16",
": 	c #39392F",
"< 	c #F1F1C6",
"[ 	c #777762",
"} 	c #22221C",
"| 	c #E2E2BA",
"1 	c #AC7EB8",
"2 	c #5C029E",
"3 	c #EBE0CC",
"4 	c #ACAC8D",
"5 	c #090907",
"6 	c #A1A185",
"7 	c #E7E7BE",
"8 	c #23231C",
"9 	c #8B8B72",
"0 	c #FBF9D1",
"a 	c #6520A6",
"b 	c #59019E",
"c 	c #8C4EAE",
"d 	c #888870",
"e 	c #000000",
"f 	c #5A5A49",
"g 	c #48483B",
"h 	c #BEADC3",
"i 	c #4F15A5",
"j 	c #5509A1",
"k 	c #5A019E",
"l 	c #D3BBC4",
"m 	c #74745F",
"n 	c #0C0C0A",
"o 	c #E8E8BF",
"p 	c #94947A",
"q 	c #20201A",
"r 	c #6B57B5",
"s 	c #4A1FA9",
"t 	c #5013A4",
"u 	c #7230A8",
"v 	c #FEFED2",
"w 	c #585848",
"x 	c #7F7F69",
"y 	c #BFBF9D",
"z 	c #C9C9A5",
"A 	c #D4D5CB",
"B 	c #3F35B1",
"C 	c #4528AC",
"D 	c #4C1BA7",
"E 	c #B89DBF",
"F 	c #525244",
"G 	c #F2F2C8",
"H 	c #AAAA8C",
"I 	c #7C89C1",
"J 	c #3A3DB4",
"K 	c #412FAF",
"L 	c #5430AD",
"M 	c #F7F5D0",
"N 	c #B4B494",
"O 	c #202019",
"P 	c #939379",
"Q 	c #EAEFD0",
"R 	c #3455BC",
"S 	c #3743B6",
"T 	c #3E35B1",
"U 	c #9889BD",
"V 	c #F3F6D1",
"W 	c #8CA9C8",
"X 	c #6B9ECA",
"Y 	c #64A5CB",
"Z 	c #61B1D0",
"` 	c #5CB9D4",
" .	c #59BFD6",
"..	c #5BBDD5",
"+.	c #5FB5D2",
"@.	c #0F1B21",
"#.	c #385469",
"$.	c #5485C5",
"%.	c #2D55BD",
"&.	c #3547B7",
"*.	c #3F3AB2",
"=.	c #E6E3CD",
"-.	c #748BC3",
";.	c #285FC0",
">.	c #206EC6",
",.	c #197DCB",
"'.	c #118BD0",
").	c #099AD6",
"!.	c #03A6DA",
"~.	c #06A0D8",
"{.	c #0E92D3",
"].	c #031927",
"^.	c #0F3762",
"/.	c #2565C3",
"(.	c #2D57BD",
"_.	c #3448B8",
":.	c #7777BD",
"<.	c #BBC0C9",
"[.	c #314EBA",
"}.	c #295DBF",
"|.	c #226BC5",
"1.	c #1B79CA",
"2.	c #1486CF",
"3.	c #0D92D3",
"4.	c #0A99D5",
"5.	c #0B96D4",
"6.	c #118CD1",
"7.	c #041826",
"8.	c #103662",
"9.	c #2663C2",
"0.	c #2E55BD",
"a.	c #3646B7",
"b.	c #CDCECA",
"c.	c #EFEDCF",
"d.	c #4B4CB6",
"e.	c #344AB8",
"f.	c #2C57BD",
"g.	c #3570C3",
"h.	c #69A1CB",
"i.	c #65A9CE",
"j.	c #62AFD0",
"k.	c #60B2D1",
"l.	c #64ACCF",
"m.	c #0F1A20",
"n.	c #395168",
"o.	c #7094C6",
"p.	c #778DC3",
"q.	c #B3B9C8",
"r.	c #8270B9",
"s.	c #3742B6",
"t.	c #314FBA",
"u.	c #B7C7CB",
"v.	c #F8F8CD",
"w.	c #C4B0C3",
"x.	c #4920AA",
"y.	c #432DAE",
"z.	c #3C39B3",
"A.	c #7882C0",
"B.	c #A9A98B",
"C.	c #F1E9CE",
"D.	c #621FA6",
"E.	c #4E17A6",
"F.	c #4823AB",
"G.	c #513FB1",
"H.	c #EEEECF",
"I.	c #FBFBCF",
"J.	c #F9F9CD",
"K.	c #C0C09E",
"L.	c #C9C9A6",
"M.	c #9154AF",
"N.	c #59039F",
"O.	c #530DA3",
"P.	c #4D18A7",
"Q.	c #C1B4C4",
"R.	c #7A7A64",
"S.	c #545444",
"T.	c #95957A",
"U.	c #F0F0C5",
"V.	c #C8A9C1",
"W.	c #8C5CB2",
"X.	c #949479",
"Y.	c #ECECC2",
"Z.	c #5B5B4A",
"`.	c #47473A",
" +	c #6F21A5",
".+	c #6715A2",
"++	c #D6D6B0",
"@+	c #9F9F83",
"#+	c #8C8C73",
"$+	c #C8A9C0",
"%+	c #515143",
"&+	c #F0F0C6",
"*+	c #777761",
"=+	c #E1E1B9",
"-+	c #E0CFC8",
";+	c #9B64B2",
">+	c #C19FBE",
",+	c #CFCFAA",
"'+	c #CDCDA9",
")+	c #A3A386",
". . . . . . . . . . . . . . . . . . . . . . . . . . . . . . . . ",
". . . . . . . . . . . . . . . . . . . . . . . . . . . . . . . . ",
". . . . . . . . . . . . . . . . . . . . . . . . . . . . . . . . ",
". . . . . . . . . . . . . . . . . . . . . . . . . . . . . . . . ",
". . . . . . . . . . . . . . . . . . . . . . . . . . . . . . . . ",
". . . . . . . . . . . . . + @ # $ % & . . . . . . * = - ; . . . ",
". . . . . . . . . . . . . > , ' ) ! ~ . . . . . { ] ^ ^ / . . . ",
". . . . . . . . . . . . . ( _ : < [ } | . . . . 1 ^ ^ 2 3 . . . ",
". . . . . . . . . . . . . 4 5 6 . 7 8 9 . . . 0 a b ^ c . . . . ",
". . . . . . . . . . . . . d e 6 . . f g . . . h i j k l . . . . ",
". . . . . . . . . . . . . m n o . . p q < . . r s t u v . . . . ",
". . . . . . . . . . . . . w x . . . y ! z . A B C D E . . . . . ",
". . . . . . . . . . . . . F G . . . | ! H . I J K L M . . . . . ",
". . . . . . . . . . . . . N . . . . @ O P Q R S T U . . . . . . ",
". . . . . . . . . . V W X Y Z `  ...+.@.#.$.%.&.*.=.. . . . . . ",
". . . . . . . . . . -.;.>.,.'.).!.~.{.].^./.(._.:.. . . . . . . ",
". . . . . . . . . <.[.}.|.1.2.3.4.5.6.7.8.9.0.a.b.. . . . . . . ",
". . . . . . . . c.d.e.f.g.h.i.j.k.Z l.m.n.o.p.q.. . . . . . . . ",
". . . . . . . . r.T s.t.u.. . . . . v.! p . . . . . . . . . . . ",
". . . . . . . w.x.y.z.A.. . . . . . | ! B.. . . . . . . . . . . ",
". . . . . . C.D.E.F.G.H.. I.J.. . . K.! L.. . . . . . . . . . . ",
". . . . . . M.N.O.P.Q.. . R.S.. . . T.q U.. . . . . . . . . . . ",
". . . . . V.^ ^ N.W.. . . X.q Y.. . Z.`.. . . . . . . . . . . . ",
". . . . .  +^ ^ .+C.. . . ++! @+. o } #+. . . . . . . . . . . . ",
". . . . .  +^ ^ $+. . . . . %+: &+*+8 =+. . . . . . . . . . . . ",
". . . . . -+;+>+. . . . . . ,+' ) ! d . . . . . . . . . . . . . ",
". . . . . . . . . . . . . . . '+$ )+& . . . . . . . . . . . . . ",
". . . . . . . . . . . . . . . . . . . . . . . . . . . . . . . . ",
". . . . . . . . . . . . . . . . . . . . . . . . . . . . . . . . ",
". . . . . . . . . . . . . . . . . . . . . . . . . . . . . . . . ",
". . . . . . . . . . . . . . . . . . . . . . . . . . . . . . . . ",
". . . . . . . . . . . . . . . . . . . . . . . . . . . . . . . . "};
